<mxfile host="app.diagrams.net" modified="2023-09-25T03:57:59.482Z" agent="Mozilla/5.0 (Macintosh; Intel Mac OS X 10_15_7) AppleWebKit/537.36 (KHTML, like Gecko) Chrome/116.0.0.0 Safari/537.36" etag="pqRiPOwcgCezLYme72gd" version="21.7.5" type="github">
  <diagram name="Page-1" id="snopksQZI64Rl8GIiYff">
    <mxGraphModel dx="954" dy="555" grid="1" gridSize="10" guides="1" tooltips="1" connect="1" arrows="1" fold="1" page="1" pageScale="1" pageWidth="850" pageHeight="1100" math="0" shadow="0">
      <root>
        <mxCell id="0" />
        <mxCell id="1" parent="0" />
        <mxCell id="_7mmk0ESFK1nca1MawIW-2" value="" style="rounded=0;whiteSpace=wrap;html=1;fillColor=#f9f7ed;strokeColor=#36393d;" vertex="1" parent="1">
          <mxGeometry x="200" y="120" width="360" height="400" as="geometry" />
        </mxCell>
        <mxCell id="_7mmk0ESFK1nca1MawIW-3" value="ferry-version-updater init&amp;nbsp;" style="rounded=1;whiteSpace=wrap;html=1;fillColor=#b1ddf0;strokeColor=#10739e;fontSize=13;" vertex="1" parent="1">
          <mxGeometry x="285" y="160" width="190" height="60" as="geometry" />
        </mxCell>
        <mxCell id="_7mmk0ESFK1nca1MawIW-4" value="packer validate" style="rounded=1;whiteSpace=wrap;html=1;fontSize=13;" vertex="1" parent="1">
          <mxGeometry x="285" y="250" width="190" height="60" as="geometry" />
        </mxCell>
        <mxCell id="_7mmk0ESFK1nca1MawIW-5" value="packer build" style="rounded=1;whiteSpace=wrap;html=1;fontSize=13;" vertex="1" parent="1">
          <mxGeometry x="285" y="340" width="190" height="60" as="geometry" />
        </mxCell>
        <mxCell id="_7mmk0ESFK1nca1MawIW-6" value="ferry-version-updater update&amp;nbsp;" style="rounded=1;whiteSpace=wrap;html=1;fillColor=#b1ddf0;strokeColor=#10739e;fontSize=13;" vertex="1" parent="1">
          <mxGeometry x="285" y="430" width="190" height="60" as="geometry" />
        </mxCell>
        <mxCell id="_7mmk0ESFK1nca1MawIW-9" value="" style="shape=image;verticalLabelPosition=bottom;labelBackgroundColor=default;verticalAlign=top;aspect=fixed;imageAspect=0;image=data:image/png,iVBORw0KGgoAAAANSUhEUgAACeQAAAReCAMAAACL2lI6AAABBVBMVEVHcEzxWSfwWSfwWSfxWifqUCjmSCniQynlRynpTSjsUyjtVCjqTyjpTijnSyjtUyj3cCbuVSfsUijqTyjoTCjvViftVSjvVyfrTyjqTyjoTCiMkp2Mkp2Mkp2Mkp2Mkp2Mkp2Mkp2Mkp2Mkp2Mkp2Mkp2Mkp2Mkp2Mkp2Mkp2Mkp38iSb2YyfwWCj8jCb8jib8oyb8fCb8bSb6aSb0Xyf8cCb8mib8lib8oCb8dib8lib8iyb8jyb8kCb8gSb8jSb8lCb8hib8jCb8kyb8nSb8iybtVCj8kib4ZSf8kib8iybqUCj8kib8myb8iib8kCb8mSb8iyb8jyb8lyb8jSb8jCb8kCasqpcrAAAAV3RSTlMAHzwuctP5///oppLc//+cEIaww/FZwEpy4uJAgJDAIBBQsND/oGBwMPDgH///uJz/////////5f////+S//+H3P9w1vtX/8//w0r/uPc8r/Euput8ZN0bxlaHAABCm0lEQVR4Aezd51oq2RaG0QkIk3QUEEyddz73f4GdV0fcm7K1WK4a468XQFW9j/MLAAAAAAAAAAAAAAAAAAAAAAAAAAAAAAAAAAAAAAAAAAAAAAAAAAAAAAAAAAAAAAAAAAAAAAAAAAAAAAAAAAAAAAAAAAAAAAAAAAAAAAAAAAAAAAAAAAAAAAAAAAAAAAAAAAAAAAAAAAAAAAAAAAAAAAAAAAAAAAAAAAAAAAAAAAAAAAAAAAAAAAAAAAAAAAAAAAAAAAAAAAAAAAAAAAAAAAAAAAAAAAAAAAAAAAAAAAAAAAAAAAAAAAAAAAAAAAAAAAAAAAAAAAAAAAAAAAAAAAAAAAAAAAAAAAAAAAAAAAAAAAAAAAAAAAAAAAAAAAAAAAAAAAAAAAAAAAAAAAAAAAAAAAAAAAAAAAAAAAAAAAAAAAAAAAAAAAAAAAAAAAAAAAAAAAAAAAAAAAAAAAAAAAAAAAAAAAAAAAAAAAAAAAAAAAAAAAAAAAAAAAAAAAAAAAAAAAAAAAAAAAAAAAAAAAAAAAAAAAAAAAAAAAAAAAAAAAAAAAAAAAAAAAAAAAAAAAAAAAAAAAAAAAAAAAAAAAAAAAAAAAAAAAAAAAAAAAAAAAAAAAAAAAAAAAAAAAAAAAAAAAAAAAAAAAAAAAAAAAAAAAAAAAAAAAAAAAAAAAAAAAAAAAAAAAAAAAAAAAAAAAAAAAAAAAAAAAAAAAAAAAAAAAAAAAAAAAAAAAAAAAAAAAAAAAAAAAAAAAAAAAAAAAAAAAAAAAAAAAAAAAAAAAAAAAAAAAAAAAAAAAAAAAAAAAAAAAAAAAAAAAAAAAAAAAAAAAAAAAAAAAAAAAAAAAAAAAAAAAAAAAAAAAAAOIfROKjfaBIAACe6mM7yZ/PFchJUa7X+X/7scnG1CQCAL9nO8g/z6SSo0m6ef5hfbwIA4HNGi/yb+Taoz2Sff3N5CACAx41mWRRXQW3Gl5kexgGAk21m+W/boC6jy/yX+SEAAB4xzWMmQVUWecRsFEcBABzyqHVQk20edRNHAQAs8rhxUJFZHjeKIwAAxpm+EdXvkI+4iiMAAHb5iFlQj5t8xCKOAADY52Nug+pr7dFeCwAwydRr63eb2aHXAgAsM/XaV1FrO/RaAIBFPm4cVF9rj/RaAIBRfsYuqKbWdui1AABXmXrtq661ei0A0LHW6rWV19piEwAAp9TaYhlUXGuLVQAAnFJri31Qea01MwwAdKi1xSSowD4/L/4KAGAzT722fpP8gm38BQDAKlOvrd8ys0OvBQBY55eMgoprbRF/AQCQhUO7ddfaDr0WAGCbX7QIqq+1ei0A0LHW6rWV19oi/gAAkKnXvvJaW9wFAMAptba4j4qptcU0AAB+N80TzDfBWS3yBLMAAPjdPE+xioo5WF0cAgDgVxeZem0DB6u79FoAQK0t5sE53Wd26LUAALM8zTZqp9bqtQBAccgTraNWam33XgsAqLVF1E6t1WsBgGKWqde2UGuL2wAACrVWr331tba4DgCAuM7TRa3MC3fvtQCAWltcBGcyz9ONAwAYvNvsYBqcx0V2sAsAYPB22cE8auZfoPVaAKCYZReHqJ5am3otADDO1GubqbXFLgAAtVYIbKbWFrMAANRavbadWltMAgBQa/XaZmptsQwAQK0VApuptcU+AIBB22fqtfW7zA70WgBgkp1dR984ZGdXAQAM2FWmXlu/m+xsEQDAgC2yu9voGbPsbhQAwGCN8gl20S9uszu9FgDUWr22uVqr1wKAWtvdOKqn1uq1AKDW6rVN1dpiFQCAWqvXNlNri4cAAAbqPlOvba/WFpsAAAZpM0+9tn7jfKJtAACDtM0n2kd/2OUTrQMAGKR1PtUkesM+nyoAgEHKJ1tGncwL67UAwDafbBF9YZlPtg4AQK1t4dCuWqvXAgBZtDaMqtYWdwEAqLV6bTO1tpgGADA400y9trVaq9cCAPPUa1urtXotAHDI1GsbnBfWawFArdVrm50XLmYBAFi972QVFTMvXBwCAFBru7gPXt4qs5deCwCotUXUSq3VawFArW1wGFWt1WsBQK1tdBhVrS2uAwAYkOv876I6aq1eCwBqbdu9Vq0tbgMAGIzbzNZ6rXlhvRYA2GXqtfVbZ3d6LQCotXpt5eb5HMYBAAzEOFOvrd9FPotdAABqbRfzqI6D1XotAKi1LR7aVWv1WgBQa9saRlVr9VoAUGvbD4FqbbEPAGAQ9plD6LVqbTEJAGAAJpmD6LVqbbEMAGAArjIH0WvV2mIRAMAALDL12vpd5vMZBQDQvFGmXlu/23xGVwEAqLV6bQ1usgu9FgBY5HO6jWo4WK3XAoBa29KhXbVWrwUAVpmD6bVqbfEQAEDj7rMYwDCqWltsAgBo2maeA+q1am2xCgCgadvM1nqtWqvXAgDrzCH1WrW2CACgaVnotRWb5LPbBgCg1uq157XMZ7cOAECt1WvPa59d6LUAQL6AZZyTWqvXAgAXWTQzjKrW6rUAwDSLZoZR1Vq9FgCYZzGYYVS1trgLAKBRh8zB9Vq1tpgGAKDWttNr1doiAAA7Cnrt2Yzm+TIOAQCotXrtuayyO70WANRavbZy9/lCZgEAqLV67Zls5tmBXgsAHPLFPMR5qLV6LQBwky8nqqLW6rUAoNa2P4yq1ha3AQA0Z5zF0IZR1driOgCA5uzyJUUd1Fq9FgDU2vZ7rVqr1wKAWqvXVmCbL2oXAIBa20nUyMFqvRYA1Fq9tgLzfFnjAADUWr22bxfZhV4LACzzpUXF1NpiHwBAU/ZZDHIYVa0tJgEANGSUxTCHUdXaYhkAQEOu8sXNol9qrV4LACwy9Vq1Vq9tEgBqrV6r1uq1AKDW6rV9u8keLAIAUGv12j7Nsg+jAADUWr22P7fZi6sAABqxytRr1Vq9FgBac5/9uI2KqbXFJgAAlzm6uI6KqbXFKgCAJmwz9Vq19g8PAQA0YZ19GUdP1Fq9FgDI3uyif2qtXgsAaq1eq9bqtQCg1uq1/dlnfwIAUGv12l5MskfbAACs3uu1fVhmj9bx6gEA0+zTJHqg1uq1AMA8+7SMiqm1xV28cgDAIXu1j4qptcU0gHYAaq1eq9YWwTP76mdf/+qbb4uvf/XzH74LAHh2s+zXVVRBrdVre/D9Vz98/fWbb9+++7K3377/+sMrfNoDQK0tFtE/tVav7f3p7uPX5dmum7dvvv7hU7wiAKi1xSjobJF9C57o04dvvv3/u//o2/cfPwXQP1Br9dp+bebZt0PQ2Xc/P9+9ez7ffv3D9wHD8RN794HlqM7tUfx0VKX1Krk6SYAMAiPmP7+b9L7UlWxs4Mjs3whu6LAX/4KzNIC1doG9FtfGKN9r0e/qGE6vKawAAKD76j177Xg/TaLzNgmqFHhTqXeVzKdye7NyrHJvhSynL/fXiSbo+F8H1tqZXYtSrLXstSNsiyFMril6mYkNe3NyrLC3UpZjw/6cQBPH/zqs2UezgF+iGmtt8ih4l+/qMJfhgM4j8og8EHnAg1nCnWjHWsteq6vwkmFXEXlEHog8jMZay17LWpt8lzdgW4cllN1KI68h8kDkYSTWWvZa1lr22v31bQxLiUW1xsgLRB6IPIzBWsuHdllr2Wv357smLKvcEnlEHog8aMNam9zLAXBhlvFRnkPVxrC8ofNE3uuIPBB5wCezkBvZHz6bhTzI72DroER0nsgj8kDkYX9cvWev5bwwe+3r0k6rPvOIPCIPRB6wMUv5Icqx1rLXPtMNIVGeeUQekQciD/hgXsZhVNba5EqeI/HUZx6RR+SByANujWGvZa19w0YUI/GSoSPyfkfkgcgDLo1hr2Wtfcsnwd9sExRrLJFH5IHIAw5Ya9lrWWvZa5O+DMrVFZFH5IHIA/Zaa9lrWWuTjcAXQb/oiDwib3lEHsBamzyJaqy17LVJF0MWBkvkEXkg8oBE7oxhr9XvySzqlqU2G4Un8og8EHl4hqv3aj+0i29mUZf8BZGPwRJ5RB6IPLyMq/fstZwXfuaDrJcdQmYKT+QReSDyIIILs6xHeR++m6Ww17qQn6Yn8og8EHnAvTHstay17/olK9U3IUu71UcekQciD7gxS/suUL3WJneySruQq9qvPPKIPBB5gHkbey1rbXItK+TrkK+hJ/KIPBB5YK1lr2WtZa99QT+ErHVEHpEHIu8ZsNay17LWstd2IXctkUfkgcgDa+2iHuRt+Gjmx17bhvyVnsgj8vCXLf/rwNV7pXstHowCN7IqvgnnoOmJPCIPs/1yBrh6/9xHeRM2RgNZkz6G8xB7Io/IA5EHftZL616LT0aFe1mPbQznoiLyiDwQeeDq/XI28hZcGRW+8MpFhhxzLZEHIg+stUv6JNCz1rLXFuFsRJ/H34olkQciDzi7tTa5Eqhea5MfvFabnU6IPCIPRB5Ya9lrWWvZa8+t8Uoh8og8EHlgrWWvZa19F42XG0vkEXkg8sBay17LWste+xdfhpk05b8NXLwg8kDkAQtcvV96r8WtmQ97bROmVJaF66yt5AWVtVvn6lMWX6yIPCIPRB64er+4D/IKXBo1vrLVjhRL11kv+6nszp2k9ZwQeUQeiDyw1i7uVvCyuwujxxONN6bvrJcR7K5twjEGT+QReSDywNX75V0KXnZtFHmk8Q4S610vx/DWlWGsrRB5RB6IPHD1XoE7wYt+GsNem2XjNa6Xk7CuCSOUQuQReSDywFqrwbVA9VqbfOeW2X7qrpIT8l0bw4F6Io/IA5EH1loVfgnGr7Xstaoar9l5Ob3tYZ3XCpFH5IHIA2stey1rLXttH8NpxKKSqWzb6Y7WPuPt3ioij1Ig8gDWWvZanWste20Vw0mUnUzKd00mf1ERecsDkQfuKLDXstay1/omnEJrZXp9G943CJFH5IHIA1fv2Ws1uzGGvTaXF2vbSubh3TDR0Voij8gj8loBuKNweveCZy6MNh/lDO0ySrykGyb5fAqRR+QReaUA2ftg1LmR3+GzUedBzo/VnXgjMq8i8og8EHng6r0m8jt8Meps5Oz4GI5UWkmUZF4hOhB5IPIA1trkh0D1Wpt8knNThuPEThItmRc9kUfkgcgDa60qXwSq19rkSs6MC8cpvCzGuxie24kWRB6IPIC1NpHZsday19pwlMHKoqo6/K4RDYi8JYHIA2stey1rLXutHzJ7jPeMHVR+PoXIWwaIPODO/I29lrWWvbYNR4hW4eBciwpE3oJA5IE7Cuy1rLXstdtwhNqLDn2j7/MpRB6IPICr96/utfg/o9MHvp6i7v0Gpy4uiLxlgMgDjGGv1e+7UepWzkad+1T77GFe9EQekQciD2t2b5T6KviPb0apSxHerG0q0cW34W+dKELkgcgDuHr/b0+Cf/tqtLrjzdraizpdVPj5FCIPRB7AWps8ClSvtcn16j+D3IpGfRMskUfkgcgDay17LWvtaL/kLPRhLCc6+U7UIfJA5AGstcl3mQlrLXttGUbqBEQekUfkASoZw17LWsteu6XxpkXkgcgDuKPAXrvAWste6wcab1pEHog8gDsK7LULrLXstY7GmxORByIPoB7Ya5OPRrV7yZ2PSzYeiDwQecAEnoxhr9Xvyqh2I7lrwyiFYAQiD0QewFrLXvsvG6ObZK6a7ft4IPJA5AGstcmVQOSTUe7HKh/kNYLDEXkg8gDW2mQjUL3WJl/W+CCv8YIRiDwQeQBrbfJJIBuj3Qof5MVeMA6RtwKVtZ1zrij/W+3+Yq31Zx153tqdc64u/9G6v3TWVgKw1s6/17LWstdWYYytYCpEXr5661xZhvcMZe06688s8vqtq5vwmvjPv7MA3FGYca9lrWWvbZUdrAWRl6MqFc5BYll0/XlEnnVlDPsYardc3YI7Cuy1rLVjrO1BXimYDpGXGb9NhTNOLJ3NO/KqXR0O07SdF4C1lr1W5IPJwNO6HuRFL5gOkZeRqmubcLxy12caedWuCaM0hRWsGHcU2GuTazMh9tpK3Q/kgcjLxbZowskMRZ9d5PmxhZfEdivAZB5MBthrf5oJcZvEceliH325t27OyCtPoyPyDlZ1dTi1oahyiry+DUeLRS9YL9Za9tq7C5OD7yu6Wjt4Piw2adCUYW6OyDtM2iin0HS5RF5Xnuxf2csKgbU2+cVam4NHyVMXDmdlfYg8Iu/5RjmN6KoMIq8bwunEtpL1AWttcsday147mYGTtUQekXeIbR0m11bKI68bwonVVoDT2pg8XLPWstdOxfJmLZFH5O2vKmKYRVspjjzbhAmUVgBFdxTy32tZa9lr63CwTtaGyEuIvG0Z5uO80sir6jCRshdAyx2F/Pda1lr22orPIO+HyCPy/G4Is4qdyshzMYsHmMClycU1ay17rZrvp/SyPkQekVe5GGZX9uoir2/CpKKT9QB3FNhr7002Hs7ztQveuiDyiLyqDctwyiLPhckNVoATuDUZYK/9YqbDXmvDoWIlMyDyiDwSL2kqRZHXN2EOhZd1AGste+2Uay23SdpZYoDIEyKPxBsrbtVEXhfDCfEwD6y17LWfTUauzuzaBZ9PIfKIPF+EpRVKIq/N+98ZrLWKsdbmYHNe1y54kEfkEXkuhuXVXkHk+Sb/mRqstVr9YK1lr533I3k8yCPyiLztEFRo/OKR18ecZmr8yd55rbeNrFn0vxvdtD7fAwRBshhAWeNSpmzLOXc7dp/3f5U56Zs6yToskAR2odZ6AieRy1hVG3Dy8DQp/idPjk+T4n8tKWoe5P0cJA/JG1dOhWbVs+RNmqRuFgM88mfnCXGRqeRdnifE1fXNQGotD/KQPCSvLp0QzapXyVu4PpjXBtCSG7+5PU+I4zwl7+I8IR57fzKIWsv/rJE8JK9YOymaVY+St0gsUwM88N5fX52nw2WetfY8IZ54758Ou9aOLQuQPCSvnjo1mlVvkrdwfTFbWRsAnvo/c0evpdbujTP/Z27Sr7W87ALJQ/ImjdNjXfckeYsE1RaotX/hGb2WWrsnbjf+z2weDLnWrqwHkDwkj8d4IV72IHmL9B5gAmz8X7ml1ypzlNKlC/9Xng641laWAUgeklc0TpR5H/+cm/QyNcBz/2fUj+XRa0/Pk+HO/40XlgwTF8nChg+Sh+SNnC5lf2+txvIgJV74v/OYXrsHqLUv/d/ZDPe9tY0NHiQPyRvPnDKFjuRhefpQa//Mk/NUOKXWynLr/5/nlgprXiaJ5CF5CjcuepiqLFxKNGOLA6i1gTN67Y5Qa6823vvUeu0qkWsXSB6SR6oNVAKSx16ePtTaQDqbyEfUWlEe+8DGEmHp4pjZsEHykLx65vRZZih5fPxAq1qb2uWLU2qt7gpyer226uG7RRgkD8lbNWmkS2nJE7hYDPDK/xN39NodoNY+84GEei1vu0DykLx0juMFptKSJ/AEE+C1/2de0muptTuuIAfeDMlZAlMbNEgekjd2iVDoS57CbxuotYFbei21dscV5MArS4GSkTwkD8mL+JnQYS0seQIXiwHe+n9lc0WvleNdWivIgdeDPJJX27BB8pC8usmnXBYuPSrbCoD3PiC7iUyv/ZDWCnJqvZbPVyQPyfsXFvk80ypcgpS2DQBvfGCXTWR6LbX2zP8H3qaoLJx6RvLYyZtlYzuFS5HC4gFqbUKbyB+otboryIH3pk/J3VokD8lLVX2aOk/JW9cWCVBr228i02uptdc+kFavnXZ+1BvJQ/L0me7uX1VVlouiKOyfqItiUo6qtcqjvMIlycjiAWptQpvI76i1uivISfXahs9WJA/J2+uMymxeTlb2X6iL5XQPptdoSJ5+sAVqbeCOXkut3WUFOfB+cN9lExMFybM9guRZ2c7vRouVbc94OXU7sshD8uKbAsBH/zNe0muptTusIAfeDO4aoWUBkofk1WsXSVUWFk+9qNwuzFQlr6pGZTkpAmU5qmbcsIUea23gjF5LrY1fQU6x144YUEHykLyd//8zG02sNeOyce0p5CSvGi2L2n7CalJWjYuFO2DxwCcfkN1Eptf+muIKcuCjiVPxv2ckD8nb7c++Wu7qG/Vi7doyV5K8ZrrcRjpXy4pJZDg0v/l7uKbXivAwxRXkwGcTh9POSB6St8vvqlrUtgfqsmm9oqIiebNyFeO1U+5ewEH57O/jCb1WgzRXkAOfhnXvwiAXyUPybP7ftWY5tn1Rt5WehYTktfijGJdr7l7Awfji7+cZvZZa2/rSReCrSTMhkPwEJA/JGzfuPpr5yvZK0bg2TPuXvPWopeyGTL1nvQX46gNpbiJTa3VXkJPptSVH8pA8JK/Nj8dsUdu+qSvXhrpnyasm1p7FmvdeQA+1VmQTmV6b6qWLwBdTZspKHpKH5MXPqMwLoXW+Ra+SNx/bbpQNMyrQfa1NYBP5IbVWdwU5lV677vCRAZIXQPJSnlFpRmOB4ZbAtD/Ja8qx7cy46vzVvUCtTWETmVqrfiBPv9dy0BnJQ/Li/vybMpiFiOX1Jnn7+qNYNnt+lAfwzQdkN5HptemuIAe+pO4rgalBVpKH5K3iFa8Hy5tYe4oeQ21gNdvrq3sBvvuA7OULeu0vqR/IU++1E/7bjOQhefcxj1a8Hixv1IfkVSvbI/V0nxdsAX74gOwmMr32Mt0V5MC3VC/XMj6K5CF5dROheH3dvph1L3nNYu86zVYedFprBS5f0GsvEl5BDnw3Wabcu0DykLwtjausxV6oFqi7lrxRLdGpf5KqAU58QHYTmV57nPKli8APk6Xi/AuSh+TdzzocQOuKuok1nW4lb1300KkjBtoBHvlAysfyqLW6ly4Cv5ssfJwieUjeNgdXq0L5sKwbdSp5o9pMx/L+g3wD3PhAypvIx9Ra3UsXgZOBSN7IIDvJQ/KscuuJ+EGKqkPJawoLCJzLmxtA+1orfizvklqru4IceDSQBZWlQX6Sh+StwmE82WDbneRVtZDcMogMu9Za8U3kC2ptP9z6GG6EdYXLtUgekpf+xfeVtaWQmlGqZ6yoQFe1NnBGr6XWtj2QJ91rSw6/SEoekgd105HoFAqpNrBqdr56AfDAB+IvX9BrqbWPfRyPhiF5Bkgekif5w1l28nc3G9vBWex89QLgqY/kml5LrY1fQdbvtVXk4ipISh6Sx6O8qou/u3UteOeEw8LQvtYG7ui11Nr4FeTAA1HJo4qISh6SB3MXwbqLv7tK0G7jf/NArZXYRKbXHqW/ghx4apKsWVARlTwkD1YuhuFIni1dLCsDaFdrA7f02o45Tf/ShXyvdQGtb2ckD8mDmYugGI7kWeV22YIGeOEDkZvI9Fpq7Z1vwUaz1/KSSFnJQ/JgmavkFTv1WoCNb8Pjc01OqbW6ly4Cz5nJQ/JiQPJg7CIoByR5Nt3hfi3Ac9+Ol/Raam3kCnLghaSt6H6QInlIHqxzlbwx92uh61orvIl8RK3tjquNb8dmAJJnsLvkIXkjgy0Zue2phiR5Nu96DxmotbqbyKfUWt0V5MBztpCRPCSP7+MYJtlK3thFUhvA33nlW3N9Ra/Nu9Y+8YEB9Nqy3y3ksh/GaUgekge1255mUJJnlWt5KwzgtW/PHb22Kz6kv4Ks32vLfouI64cCyRug5HEob1iSV7g45gbQvtaKbyKfUmslV5D1e+0UyUPykDxhptlKnq0ZUYHda63sJjK99t1QVpADr1N/q9kIyUPykDzZZ+2rYUnesvsRFaDWqh7LO6LWyq4gB96kLnklkofkIXmyf67FsCRv7OJYGED7Wiu+iXxKrdVdQQ68QvKQvAiQPFjlK3k25VAetOGt35Un53J8oNYqXrrQ77VrJA/JQ/KUyVjyFhzKgza894HhbCIfUWsFV5D1e23HcoTkxYHkgdue5cAkr26zlAfwxgeGs4n8jlp7aK797rxF8gJIHpIH+/zrLwcmeTZlKQ/6qLWSly8+UGt1V5AD75E8JG8rkDxA8hYu+jgJwEe/D+7otZnV2mc+cOhei+QheUgeIHnjjl9fC9TawEt67UFRX0HuoNcieUgekgdlxpJnMxdDYwbwyQdkN5Hptb8OYgVZv9fWLooVkofkIXlIXmeMOp5DBmptYHNFrz0cDwexgqzfawsXhbUHyYsEyQMkb7L7DzZQawU3kem1Q1tBDnxC8pC8bUDyAMmruXkBfdVavU3kh9Ra3RXkwEckD8lD8gDJ24oZ77yAOL76wNA2kam1upcuAp+RPCRvK5A8QPJGXK+FOD77gOwmMr12eCvIgS9IHpKH5AGSd4ClPMsd+OIDg9tEfkit1b10EfiK5CF524DkAZK34not9Fdr5TaRqbW6K8iBz0gekofkAZKnt+SZPvDNB2Q3kem16gfyOui1SB6Sh+QBkle5GJaWN/DdB2QvX9Brf1FbQe6h1yJ5SB6SB0jenA0ViOCHD8huItNrL9UO5PXQa5E8JA/JAySvdDFMDai1++aaXrtvLtRWkHvotUgekofkAZJXtN9QAWqt5CYyvfZ4mCvIga9IHpKH5AGSt/frtY0BtXb/PDtX4YJaq3vpIvANyUPykDxA8raBobztgd99YJibyMfUWt1LF4HvSB6StwVIHiB5axdDbRkDJz4w0E3kS2qt7qWLwA8kD8lD8gDJ2+c/f4by4JE/FHf02gHW2mf+UNykKnkrJA/JQ/KQPMkNFSQPbvzBeEmvHVytvfWH48REWHUoR0gekofk1UVRTMq/MKr+hVH5ZyZFUSB5bX7/rCHDAx+Q3USm1x4P90Be4JGpgOQheUjewSmKZTmvqrXblqqaluVfdQ/JYw15S+CpPyCbW3rtsGrtY39AbpA8JA/JGz7jYllWM9eepppXmUtegeRB/7VWaBP5mFqru4IcOEHykDwkb8DURRn0rCuQPDcyoNYqX76g1x4NeQU58AjJQ/KQvIFSlNO12xNI3ir+lRdArZXdRKbXniqtIGfQa12/LQTJQ/IGRT0Zzdw+QfIMyQOFWqtzLO+IWqt76SLwAMlD8pC8YVEEwUPykDzQrLXpbyKfUmt1V5ADT02DCslD8nYHyasXU9cfSB6SB899QPZYHr32VOrSRQa9tur3VDOSh+QNgPFy5g4Fkrd2ETSWK/DCd8BLeu0Aau2t74BNkpJXIXlI3j+D5NWLygWQvJ4/oyxXYOO74Ixem3ytvdr4LniO5CF5SF7yFHPXP0gekgd/+IDs5Qt67enQV5ADL0yCEZKH5CF5LakXa6cAkofkwWsfkN1Eptd+OO+dJz6QQa8tXRQmDJKH5HXKeNQ4LZA8JI9am8Pli1Nqre4KcuA5kofkIXnJMp47FZA8JA9e+YDsJjK99p3YCnIGvXbpohibJEgekofiIXlIHrW2E27ptW35kMEKslivLVwUBZKH5CF5dYeKh+TNkTwQqrUSm8in1FrdFeTAHwlK3iR7yUPykLyycUie6pESA2rtwXl83jMfqLW6K8iB1ybAuIf3miF5SF7CFGunBpIXMKDWZrCJfEStlV1BDrzh5bVIHpKXGPXUqYHkIXnwxgdy2ER+R63VXUEOvEpP8qqcJQ/JQ/ImjUPykDxQ463vmM0tvTa9WnvtO+a9CTBzMcxMCSQPyeMxHpKH5MFHH8jj8sURtVZjBVm/11b6Q3lIHpInwWrtkDwkD6i17TaR6bXnvfLMd89b65+5/lAekofkKbB0iiB5SB588j3wjF4bya8ZrCAL9tpSeigPyUPy2MZjDDkCA2qt5iYyvfZhLivIgTfpPZ5Y5ih5SB6SV88ckofkAbW29bE8em0+K8iBt8mtIY9MCyQPyeM4HpIXMKDWZrGJ/JBaK7GCrN9rV9obKkgekifAqnFIHpIH1Np/5sl5j1BrIzjzPfE5uaG8xqRA8pA8HA/JC1QG1FrJTWR6bU4ryIFP1jtrF0VtqlQZSx6Sh+MheUgetTanTeSH1FrdFeTAR303Ur1ei+QheTgekofkwVcfyOnyBbVW4tKFfq8dyb69FslD8nA8JG+G5MG9fPMB2U1kem1eK8iBL6kN5U2tM5A8JI/tFCTPIXlwH999r7yk127FL3mtIAe+prahss5J8pA8JG/m5EHyAnPLDfjhA7KbyPTaywxWkEV77djFUQ9A8kokbzuQvLnbL01VjcpyUhRFbf9G8WcWZTmqqnZqieS50oBa2y2bK3rtFlxkcCBPtde6OCbZSB6Sh+Qt9mh3o7JY2fasikU5rxokD8kDsVobv4lMrz3OYAVZttdW6d+8QPKQPOFLF01VFmNryzJzyVshefcBz30gs03kC2qt7gpy4Ca1IFWZCEgekqd/IK+ZLle2E0Xmkle4GBYGvO4im03kY2qt7KWLwBvrm6WLIxPJQ/KQvJHbjfWosJ1B8mIoLDPgdx/IbRP5klqru4IceCBwvVbgYxTJQ/LUKHY0vJXtDpK3QPLuAz57Aa6v6LWKtfbOK/DKeqZ2+ofykDwkL61YO51YAMnrbMhzZZkBXoI7eq1grX3mkby/stY/lIfkIXl920UEzXxsewPJi8EAyZPbRKbXHvd6IA/JmwocykPykDwx6qat4pW1GZLXz+1/AyRP7vIFvfay1xVkJK9MfykPyUPyVGaQ5+Pe/mCRvLUBkiewiUyvFai1jz2S1/J8+WjwkofkIXlj14pZYXsFyVsLnyUBJC9wTa/9GUf9riAjebVL//W1SB6Sp/Agr7Q9g+S5GKYG3K5V20Sm1572u4KM5EXfIhybGkgekifwIG+9MiSv17+I0oBX1/bGs/PuOaLWil66CJyk99BiaWIgeUiewIO8aW1IXo+/fSSPN17kt4l8Sq3VvHQR2CT4FvaZaYHkIXkCD/LmZkgeW8jQMU99QHITmV57muMKcuBG/xtNvdcieUiewEbewpC8zv8mkDz47oW4o9dK1NpnXoivJsBaoNcieUieDo2I4yF5UxdDbcDNiz55Sa8VqLW3XokvJsBcoNcieUieDIs+HQ/JYwsZIvjqlTij1/4rpzkeyAt8NgUWAr0WyUPyZJiKnMczJM/FUBnQa8UuX9BrP+S4ghx4lOYx89L0GCF5SF4/y5GuMiSvp48mZvLghVfiml7bc619omX9D0yC9QD2kEskD8nbD0sXR1MjeSyoQF988V738gW99l2OK8iBj6mughWDlTwkD8mbqfw0IHmlwMlIdeC1D6htItNrPwisIPMgzyYCZ5CQPCRPg1rmhwHJmwrYtjpwssn6WN4ptVbt0kXgD6mvtR62CpA8JE+PhUysRfLWLKhIwyCywCbyB2rtPSvIDCEHkRCYykPykDwB5io/CkheHafbpgAQbO/otT3V2pdeijcnSkfNBa5eIHlIngKNyk8CklewoLIN8OCz9/luIr+j1kquIPvN26Tf1TkZpOQheUjeykWxQPJU7l2MLFfgRMzyzui1PdTaqw2O93PWAtNgSB6SJ8BSJhEieVMp3wYsL/LyBb32g8gKMo5nIxfLyrRA8pC8HsSiRPJkyvnK8gVObgQ3kem1+a4gv3mr36jEV1SQPCRP4KH2GMmT+VSyrIHf5C5f0Gt/Pe+OZ16JmxP5rzaBrzckD8lTnxOaGZKnUs5nljfw9o3YJjK99mGuK8g/TI9R6o/yyj0c0EbykLxCZj8FyZum+4EEJNvbc3ptpivIn98mfacwME5V8iok72cgeaXMzwCS13DvAuJ4tMlyE/khtfbO6/D6gUmy1n+Uh+QheVpTyGtD8mT+47kygE+fvQyPzzsj+1r70suweS79BKOHT1UkD8lTolL5fw6SV8aP2QC8z3ET+V3mtfbMy/Dtu6kydtFUQ5M8JA/Ja1QKIZI3a/FpBPDHJr9N5Id511qhFeSPg3iEESgGJnlIHpKn8iwbyRu7NouFACff8ttEzrvWXnsRNn8yZRYumvWwJA/JQ/JWKstsSN6y5f84AX7L7vLFu5xr7RPG8bajblw0y0FJHpKH5BUqy2xI3owp5ORhMu8u4177S2YryJsfps7cRdOMTQAkD8nr5Xl2heTJ1NrKAAInLzLbRBaUvMv+V5AZx2tbqgJTIclD8gokr9MbnSWSJ1NrS1MEmMy7zbbXXmS1gvz+gSXAzMUzQfKQPCQPyds7M47kwU58+SxyLC/TXnuc0wry5g9LgoWLZ10PR/KQPCRvrrGgguSNHSt5sCPvM9pEvsi01r5kHC+KxsUzFzdUJA/Ji6DSeHqE5I12PjcC8GrjBXhy3gXHWdbaM6/Ab5YMpUs32BZInisHInlIHpLXOF5cqw+TeTqbyJc51lqJSxdv/mTpULsWNLUdECRvlJ3kIXlI3sLFMTaAQOBrLpvIFznW2mvG8VqfSJIZL0DySul0juQheQLXLmYmADCZ1+fli+P8au0d43jtTzvrrBcgear2hOQheQK/awZU9GEy7y67Xnucxwry50+WGnPXhkJC8pC8ZhCSh+QheVMXx8p+CsDTje+bl7n12kuBA3mM40V83vf34gskb+G2p7aOQfKQPIGisDZtgMm828x67YXACjLjeDt/yQVmB7MLJK8Qsw4kD8lTCwojuxeAj70LwVVWvfZI4EAe43gRH/gCM1VInsDRJCSPMWTJo8ErEweYzHucVa897WMFmXG8+G85gU1kJG+s6tpIXonkHYQ5tRb2zsnvg99EPsqo1p4xjrePLxWFNVIkz1Rf7oTkjZC8Q1Ac4no/wNehbyKf5lNrbzeM47Vnrm95SJ5Ct0LyKiRPIiaMTR9gMm9zm02vPR32pYvNI0uasZOyPCSvctuztO5A8hok7wAs9NfYgck8yU3ko1xq7R3jeDsx17c8JE9g+R/Jc2Mkb+/UTavPHX2Ayby7THrt0aBXkN9b8tSNkuUheWV32oHkTV0MEyRv74z0X54NTOZpbiJf5FFrbxnH290qhCwPyVu6znotklf2u8+G5BWtL/brA0zmnWXRaz8M90DetxMbBGshy0PyCifaa5G8NZK3Z+q1YyQPOpjMG+Ym8mkOtfYx43gda8WBnyQheWPV9wgjef/H3p1tSWpjURg+l57tewkh0BFIZNZy5+hIV0e6a67qyfP7v4oTzyOOIISQxP7eoHPFsn9zYDc7RF5YFZf82QVgMu92A/fal6WuID9/QcVoeTZLYSHyKN7fH5EneMV7LSKviXE8APi81E3kt4q/1l5gHC+I2vNsStMERF4BX3wi8uKNqNiSIy/AP3cGAshqMu++9HvtW/FWkDGON1/P8xmX+L+dTWaRZ6M9ykPk6cSeI1neUORpw0eTBBBgMq+QTeTXhV9rb24xjheK4fl8l3hlZBZ5fbT9f0Qe8XEMLUkr3lLkWeZY+ykAn+1K3ER+q+xr7R7jeME4PoXVFAwiT8R7Ex2RZ/g4TawnW+VHXsV4kBcVJvMK3ER+WfS19gnG8QKSzGmcbBF5FK87EHkqnXfCasNbiryO8SBvGzCZ96Tke+3L8laQvz6jIhk+iaS4XCGRFyA8Bo3Im00m80N3nrcUed0K/5QBTOYVt4n8VrnX2psdxvGCcp6zephXcORVfJwWkRevNXxNi+g8bynyOsaDvPjg7JPSPr5Y/V4baQUZ43gB9HwiqQmRt8p6WIfIi/cyqonwglrxkdcxHuRtCCbzbou91/7ncimP/7GGf51RwVo+0dAg8uLveowcIm+uJPa/a8ObiryO8SBvJfBile8v9qXea8+LWkHe/ZOKpj2fSjlE3hrvR3qHyJtJ8dG6+KfasiLPrvfeL8DZs6I2kVe+1xa1gvy//1PhBJ/O1oi8FT51HjQib56K16483TKXF3nh//cG/40DJvMKeC3vfN1rbUkryG+ofD2nkHmIPMdHMzUib5aGV668zvOmIs8ZnqejMAD+/0VBm8hFXmv3K2T4U9qClhPIPEQeeeY4F1tEnl43OJxi3lTk9Z7nUZQzwGTevsR7bYQVZIzjhd7cD6IVtDBddORZPp5vEHnxBiIthaAt86YiT7c8l6OsASbznpR3r/1PMR9dfE5b4TyHYTpNy6mtLzrymmj/1kfkVTxa4z6upedtRV7nea6KMgeYzLso7l57HmEFGeN4gQkOxVtBy2haHhUceeRjhQciT/A8vg+feGVGXoDTdPj5FIDPC/n44mVp19pbjOMtquNwhspRaK7yzMVHnuV5JCIvTlCPjKDZ6jHxNhV5teUTNJQ9wGTebWH32vcjrCBjHC88yyENlaBwmmrgUfGR53imoYsUeZlRi/zglaBZhOVR8pE31GkkHrdUAMBk3r6se+315QLuMY6XVeWNfNvVIbqnbz2PthB5NHCkzEPkNXwC1c14iDcw5xB5IysoAGd5tPVjLWAy776oe+1VASvIb2iLDAc32M7RbFrI6cArL/J6nm/oNR0MkUc+4jsJrjc8WjPyIr9zoTvF38OxFjCZd1fQvfaD+CvIGMcLP6QSkqqOLz3XyHbg0bYiT/NJ2k7TgRB5lk80VA0dQE+/bRA/8mK8c9FYz6eqaDEAb7LfRL4q6Fq7xzhe1pU3GpSUQtDfcaKTlRp4WjmRF7482t7RIRB5jgNQVePor4neGh7lGHmjVgo6Vt1Zz6czmkoBmMz79DK8D4q51j5ZbxwPlRc+9pSVDxrxs06OlArUdnlHXh3kbUgpNE2rhdt65NHAgRj1/Q9a/+qvG+Y/VtaPvJGxvdB0GNeFqlrvKF+AybwIm8jXpVxrL6J+cfGCCJW3GkQetRyIaqUUQtT0C/dDUrff14fcfOR1HEEBkfc9r1rZi4nYE0JaxeF0VBLAZN5FIffa6/gfXWAcD5VXUOQJjgSRpz0ibwajHshfaZUyHJqlogAm83Z3Zdxrr3JeQd59RutC5SHySHEciDySiLxUGSoMYDIv/McX10Vca/cYx0PlbSryHAeEyMvnUZ5C5GEhr2SYzNuHv9cWcK29xzgeKm9bkUeWI0DkjSpOh68ReUV/dAGYzLsv4F57Ff+FPIzjBWd5RYi82nMwiLxsHuVJMog8rCAXDZN5d9nfa9/KdgX5kzNKAioPkUeSI0DkjWRKB8oKkYcPa2ENT59n+lpe/Hvto1xfyPucIJVxCUQeDZEiD5GnfUJh0yDy0Hglw2Re+E3ktzK/1j7BON5ahOfVIPIER4DIG3UJfU2qEXkYT4GVfB7p1bDHl0E9yvtaG2sF+dkZwe85w2tB5FHFISHyJihOgqMHBpGHxiscJvMusr7XPor00QXG8SLQLWdO5xt52kSKPERendD4XYXIQ+PBWs5e5biJ/Fbka22GH118gXG8v9Jz3kS+kUeOQ0LkTZDpTP82iDxLZQNM5oX9+OJRxtfaPcbxNvtiHiKPOg4DkZfBwdbX9D29YuThmwuAL7/IbhP5Kt9r7T3G8XCy3XDkkY0UeYi82ifzSzXFRx4aDzCZ9yTbe+3rkC/kYRwvCb3nVSDyyHBAiLwJTTJpU2068rwggJV9G2My7y7Te+1bmb2Qt8M43gFqw6tA5OmBA0LkTZCpvIbWbDnyBkebAJjM293kea99eRnOpxjHS4bkNSDyyHkOCJE3wabReKQ3HHlGE0AKvtpltYn8VpbX2ggryK/OCA5TKw4MkRe/8hB5E7RJ5HNSs9nIq2g7AJN5j8Pfa7O61l5gHA9v5iHywlYeIi985YWfDKk2Gnm+I4BkfPQqo03k1xlea+92GMdLjLYcFiIvfuUh8iboIYlZuGabkWdqKhJgMi/CJvJb2V1rb24xjpceoTgoRF78ykPkTXBDCtO/epORJ6lQgMm8CJvIL/O61kZYQX7+lGaAbuC8uAIiL+DXzYi8adqkMAtnthd5g6D0ALzJZRP5dW7X2vtEx/FAS8/ZGKSmEiKPtOIwEHnhKy/8LFy1ucirNAFscTLvSWb32tfJrCBjHA+Z1zY0yj/yRhUHgsibptv130NrNhZ5xhHARifzLvK614Z6IW+HcTxk3mlMr4kKijxqPAeCyJtWrT4ZojcVeb4ngM1O5u1ucrrX/ieFFWSM4yHzhsrRqKTIC79UiMgL39OB3kNTG4k8XGoBk3m3Od1rzy+DeJz+OB5oOXCavG1oVEzkhV8qRORNq83KdSOX+q3VA6fF1gSw7cm8xxnda9dfQY44jgedKbPw4kde/Id5iLxpct3PScVyvzVhOR3KEcDmJ/PuL0M4z+Zae7fLZRwPhC2m8DKIvFEzcBiIvGnO8JK8pElL/tZ0bzgJVhAAJvNCbSLncq29uc1oHA90P3AaTOVoVHLkjaTnMBB503q/4ntoatnfWl0NONQeBeBN6pvILzO51u4zG8cDZz2vre1rGhUceeE/ekHkTdN2vbyRi//WXGXSWLAEwGTefv17bbRr7ZMMx/GgWbPzTCVoVHzkhc88RN602q71BEvE+K3VvUphwRIAk3lPsrjXnkdeQcY4HjrPVI2mUfmRF/7/Xg6RFz/zvKzpIJF+a7qxQ/QFy5oA8vTxLsImcrr32qRXkF/R0qCphhICL4PIG4kZVY3IO15deQ7FdJoOpOL91urODqsuWAJgMm93l/699oPL093mPY4Hdd9yBL6VguKo5cEExaW7dpXIq2VmulP/zoYD8Ef1TacmdRRW3VUmwjM8RwCZe5XwJvLCkXed7gryF2cE0QipeDleyaYm+Lnz/PKRB3U1xF/3iU701vBCBjv1FBMAk3n75O+1V5enui9lHA/cEv+6MFYKTb8DojLLRx44aebfKBvKhugq5YMHXk0ApTj7ItVN5PMEr7URVpCfvyBYgxa9VRyCV1YKR38FdCOVXzryoO7ssI3A0aKTrQrRd215/2EG8N9EX8u7Svtae3Nb4DgeOCGt8jyPUpVsBB0C6ka25qh0rnqh6ShQN5XiA6mqqylnWjRSKuV5BqNkJwigSC+ep7mJ/EHS19r9Imn8MaUAnOhkpdTAf29QykrZzHp0B7XopVVq+u8rpRA0G9RCVspM/YmtFDWVQ4sx96RSyvAkr1QrZSM0AWAyL/predcpX2ufbGMcD7R40Ms/6MSDmiAUJx50v/sDa4JwfkgfWakfyAf9Jn7E4jt27iipkSqK4/B9s59S7iPEImmS6cA0MwGNYawAOuP+t+I8UVapFqH73HvTfN82/uf8/lUCybyiTeS24rV2KY4HAJyDL8cKm8izatfadXcecTwAgF/re764qnat3ZxLHA8A4FtXWxM5bq9dxFWQpx/HAwAk8/pK99o2voIsjgcATDiZd1vlXtvEV5DF8QCASSfztjXutYv4CrI4HgAwlWReQBO5Kb/WhleQj1/S2QEAJPOuVwMs6ltrd+J4AIBk3ne76vbaRT0V5O5bAs4TgGTesra9th38dCGOBwBI5nXbuvbappoK8k8JqBCAZF7880Vb11rbi+MBAJJ5L/qq9trDKBVkcTwAQDLvtqK9thnpIE8cDwCQzNvWs9fuR6ogi+MBAJJ53Tp6r41fa6/F8QCAaXg85m8iR++1TfkKcneXJgIAkMy7Wb3NoZK1djmhOB4AwF1Xuonc5F9rQ58unhIAQPXJvPgm8r6GtXa9mVgcDwDgqWwT+ZBvrY2vIH+ep4kBACTz+gr22kPJCnL3MQEA1GP++XIUu/J77eottiPF8R4TAEBVPnYRTeT8e+1vBQ/yHtI0AQCSed268F57kb+CLI4HAFTtoVgTeV92rb25HMHXeQIAqNJdV6iJfFF0rV1OO44HADD/ejnc7ep0sWttfAX5KI4HAFTtqUwTeV9urV1vxPEAAMm8mCbyRbm1thfHAwAk86KayMXW2p043isBAJJ5u1J7bWAFWRwPAJDMW5bZa2erE607cTwAQDIvsIn8wxiuIivI4ngAgGTepshe24ZWkMXxAADJvJvBe238WrsUxwMAJPNim8htwFobW0G+nycAgAkk82KbyLPca+16I44HAEjmRTeRrwLW2rgK8vNjAgB4n8m8PvNee5WhgiyOBwBI5u3y7rVtrqeLn+8SAMA7TuYtc+61s1wV5A/zBADwnpN53TbjXrtYnWBz+VbdUwIAmIL5hzxN5Fm+tfZGHA8AYEAyr8+21zar17sVxwMA+O6XY4YmcjtwrY2vIHefEgCAZN6JZ3lNnrX2pYIsjgcA8KkLbyIv8qy1vTgeAMCLx+fos7w2y1q7E8cDAPi7h+gmcpNhrV2OEscDAJDMW8bvtU3o04U4HgAgmTfg+aKNX2s3I8XxAAAk8zbr6L32EPl0cf9jAgCQzPunPnivbYZVkMXxAADm9wOayEF77T7uIO/59wQAIJn3H7ahe+0hrIL8kAAAJPOGnuUtItfa/vQ43p8JAEAy739cr17jELjW7kaP4wEASObt4vbaQ0gFufsjAQBI5o3SRN5HrbXbLiCOBwAgmddtg/ba/ZhPF+J48Fc7d5adNhaFYVRv4YmVebhFWCphR6oi7u303fxnkj6hKbC41pWRWHtP4z/nA0Ayr4Xni0E7a20pjgcAtEQyr2xnr03rVeJ4rQEAJPOqNvba+7TWRBwPAKDFZN6khb12P/wgTxwPACBmMq/I4u+1aa1TcTwAgFAvL6I2kfejr7VTcTwAgJaTeWdpndhr7SgkjneX/AYAwNsiYhM5cK+NWUG+FscDAHhcMq+YRN1r7+M9XRSfknkAAOxdx2siR11rS3E8AIAnSeaVMffaaE8XhwkAAE2SedN4e+2weQVZHA8AIE4ybxJtrz1JH5IVjeN4AAB8vmjWRA7fa8fNK8jieAAAkZJ5pzV7bZy19ixOHA8AgA9F8ybyOM5aOxLHAwB44mRelT5gGGOtnRTR4ngAADy/btxEPomw1mZ53DgeAIBkXsMm8jjCWlvGjeMBAPD+XcMm8rDxWjuNHscDAOC2WRP5pOlaOxLHAwDYUjJv1HCvPWhSQS6OkuYAACTzQprIw2ZrbS6OBwCwtWRe3mivHTSoIN82j+MBAEjmhTaRx03W2kocDwBgq8m8Kl1jELrWBlSQP0aM4wEASOYFNJEPHr3WZrk4HgDAlpN5efbYvfbgcRXk1xHieAAA3D6uiTx45Fo7FccDAOhAMm9as9eGrbUjcTwAgE4k80aP2msPgp4u4sfxAAA4KmqeL8L32pt0lVwcDwCgI8m8fP1eG7jWluJ4AABP6qFkXhm+116FVpA/7iUAADxpMq8K3mtvAg7y2ovjAQCw9y7gLK9mrx2EVZBfXyYtAQDgNqiJfBO41pbH63xpcaoFAOBybTKvDNtrbwIqyMWLpF0AAJJ5AU3kq/VrbUAF+d324ngAAJJ5o4C99mrzp4vbpH0AANy93vj5YlCz1tZXkC+2G8cDAJDMy7ON99p0WbntOB4AAJ9Wb6vlpnvt/WYV5KIDcTwAAMm8asO9dj9dNOlEHA8AgFfHq0w222trKsidiuMBAEjmLZ/l7W+01p52Oo4HACCZd5ou2mStnXY8jgcAIJk33WCvXaogdz6OBwAgmTeq3WvvlyrIHYvjAQBwXddErltrs1wcrwcAAMm8PKvZa9N5pTheLwAAknnlw3vtMJ1TieP1BAAgmVc9uNeepDMTcbzeAAAk8yYP7bXj9K+sEMfrDQBAMq/I1u+1w/UV5Hdvkk4CAJDMW24ij9evtWfieL0CAEjmnaV/DdettaPFON7LpHMAALhe00Q+WbPWTorux/EAAHhZrGwij5fX2hUV5OJD0gMAAJJ5sybycOVaW4rj9QQAwNtVTeSTVWvt9Hjm/HnSEwAAknnTFXvtwayCLI7XGwAAe//9v4k8XF5r5yvI794nnQcAwIti1kRe3msHswqyOF6vAAC8eb3URB4vrbWzCvLF56QnAAC4XWoiDxbX2kocr9cAAMm8Kv3hYGGtnRTieL0EALD3cb6JPJ5fa7NcHK+vAADezjeRB3NrbSmO13sAgGReOdtrB7MKcvFv0mMAAJJ507977Y+1diSOtxMAAMm80Z+99uZHBVkcbycAAJJ5P5rIB7/X2lwcb0cAAJJ5+a+99upXBfkfcbydAABI5p393Gtv0kocb4cAAJJ5VXr1bPCjgvz6LgF2BACSecXk5tlVlovj7RQAQDIvzwY3pTjejgEAJPPKg6k4HgDArnlRXSdtAgAAAAAAAAAAAAAAAAAAAAAAAAAAAAAAAAAAAAAAAAAAAAAAAAAAAAAAAAAAAAAAAAAAAAAAAAAAAAAAAAAAAAAAAAAAAAAAAAAAAAAAAAAAAAAAAAAAAAAAAAAAAAAAAAAAAAAAAAAAAAAAAAAAAAAAAAAAAAAAAAAAAAAAAAAAAAAAAAAAAAAAAAAAAAAAAAAAAAAAAAAAAAAAAAAAAAAAAAAAAAAAAAAAAAAAAAAAAAAAAAAAAAAAAAAAAAAAAAAAAAAAAAAAAAAAAAAAAAAAAAAAAAAAAAAAAAAAAAAAAAAAAAAAAAAAAAAAAAAAAAAAAAAAAAAAAAAAAAAAAAAAAAAAAAAAAAAAAAAAAAAAAAAAAAAAAAAAAAAAAAAAAAAAAAAAAAAAAAAAAAAAAAAAAAAAAAAAAAAAAAAAAAAAAAAAAAAAAAAAAAAAAAAAAAAAAAAAAAAAAAAAAAAAAAAAAAAAAAAAAAAAAAAAAAAAAAAAAAAAAAAAAAAAAAAAAAAAAAAAAAAAAAAAAAAAAAAAAAAAAAAAAAAAAAAAAAAAAAAAAAAAAAAAAAAAAAAAAAAAAAAAAAAAAAAAAAAAAAAAAAAAAAAAAAAAAAAAAAAAAAAAAAAAAAAAAAAAAAAAAAAAAAAAAAAAAAAAAAAAAAAAAAAAAAAAAAAAAAAAAAAAAAAAAAAAAAAAAAAAAAAAAAAAAAAAAAAAAAAAAAAAAAAAAAAAAAAAAAAAAAAAAAAAAAAAAAAAAAAAAAAAAAAAAAAAAAAAAAAAAAAAAAAAAAAAAAAAAAAAAAAAAAAAAAAAAIBvlGDEV/ZcNTYAAAAASUVORK5CYII=;imageBackground=none;imageBorder=none;strokeWidth=2;" vertex="1" parent="1">
          <mxGeometry x="200" y="120" width="90.61" height="40" as="geometry" />
        </mxCell>
        <mxCell id="_7mmk0ESFK1nca1MawIW-11" value="Gitlab CI Job" style="text;html=1;strokeColor=none;fillColor=none;align=center;verticalAlign=middle;whiteSpace=wrap;rounded=0;" vertex="1" parent="1">
          <mxGeometry x="200" y="160" width="85" height="30" as="geometry" />
        </mxCell>
        <mxCell id="_7mmk0ESFK1nca1MawIW-14" value="" style="group" vertex="1" connectable="0" parent="1">
          <mxGeometry x="640" y="120" width="80" height="160" as="geometry" />
        </mxCell>
        <mxCell id="_7mmk0ESFK1nca1MawIW-12" value="versions.hcl" style="shape=note;whiteSpace=wrap;html=1;backgroundOutline=1;darkOpacity=0.05;fillColor=#f5f5f5;fontColor=#333333;strokeColor=#666666;" vertex="1" parent="_7mmk0ESFK1nca1MawIW-14">
          <mxGeometry width="80" height="94.11764705882352" as="geometry" />
        </mxCell>
        <mxCell id="_7mmk0ESFK1nca1MawIW-13" value="buildl.pkr.hcl" style="shape=note;whiteSpace=wrap;html=1;backgroundOutline=1;darkOpacity=0.05;fillColor=#f5f5f5;fontColor=#333333;strokeColor=#666666;" vertex="1" parent="_7mmk0ESFK1nca1MawIW-14">
          <mxGeometry y="65.88" width="80" height="94.12" as="geometry" />
        </mxCell>
        <mxCell id="_7mmk0ESFK1nca1MawIW-15" value="" style="endArrow=classic;html=1;rounded=0;" edge="1" parent="1">
          <mxGeometry width="50" height="50" relative="1" as="geometry">
            <mxPoint x="475" y="190" as="sourcePoint" />
            <mxPoint x="640" y="190" as="targetPoint" />
          </mxGeometry>
        </mxCell>
        <mxCell id="_7mmk0ESFK1nca1MawIW-17" value="versions.pkr.hcl" style="shape=note;whiteSpace=wrap;html=1;backgroundOutline=1;darkOpacity=0.05;fillColor=#f5f5f5;strokeColor=#666666;fontColor=#333333;" vertex="1" parent="1">
          <mxGeometry x="640" y="400" width="100" height="120" as="geometry" />
        </mxCell>
        <mxCell id="_7mmk0ESFK1nca1MawIW-18" value="" style="endArrow=classic;html=1;rounded=0;exitX=1;exitY=0.5;exitDx=0;exitDy=0;entryX=0;entryY=0.5;entryDx=0;entryDy=0;entryPerimeter=0;" edge="1" parent="1" target="_7mmk0ESFK1nca1MawIW-17">
          <mxGeometry width="50" height="50" relative="1" as="geometry">
            <mxPoint x="475" y="459.5" as="sourcePoint" />
            <mxPoint x="630" y="459.5" as="targetPoint" />
          </mxGeometry>
        </mxCell>
      </root>
    </mxGraphModel>
  </diagram>
</mxfile>
